<?xml version="1.0" encoding="UTF-8"?>
<svg id="Layer_1" xmlns="http://www.w3.org/2000/svg" version="1.1" viewBox="0 0 196.77 162.84">
  <!-- Generator: Adobe Illustrator 30.6.0, SVG Export Plug-In . SVG Version: 2.1.4 Build 109)  -->
  <defs>
    <style>
      .st0 {
        fill: #dd2529;
      }

      .st1 {
        fill: #fff;
      }

      .st2 {
        fill: #221f1f;
      }
    </style>
  </defs>
  <path class="st0" d="M191.13,147.99h-12.87l-2.85-10.64-9.91-36.99-.8-3c.55-.26,1.09-.54,1.63-.84.23-.12.45-.25.66-.37.31-.18.61-.36.91-.56.2-.12.4-.25.6-.39.81-.54,1.6-1.12,2.36-1.73.19-.15.38-.31.57-.47.06-.06.12-.11.19-.16.21-.18.42-.36.62-.55.22-.21.44-.42.66-.63.22-.21.44-.42.65-.65.22-.22.42-.44.63-.66.2-.22.39-.43.59-.65l.02-.03c.2-.23.39-.46.58-.69.78-.96,1.51-1.97,2.18-3.02.1-.15.19-.31.28-.46.39-.64.75-1.29,1.09-1.95.14-.29.29-.58.42-.87.11-.23.22-.46.32-.68.12-.28.24-.57.36-.85.12-.29.23-.57.34-.87.1-.29.21-.58.31-.87.11-.32.22-.63.31-.95.05-.16.1-.33.15-.5.04-.14.08-.27.11-.4.08-.29.15-.58.22-.87.07-.29.14-.58.2-.87.07-.31.12-.62.18-.93.31-1.74.47-3.53.47-5.36v-26.27c0-.94-.05-1.88-.13-2.8-.01-.21-.04-.42-.06-.63-.03-.21-.05-.42-.08-.62-.05-.44-.12-.89-.2-1.32-.14-.79-.31-1.57-.5-2.34-.1-.39-.21-.78-.33-1.17-.46-1.52-1.03-3-1.7-4.41-.17-.35-.35-.7-.53-1.05-.36-.69-.76-1.37-1.17-2.03-.21-.33-.42-.66-.64-.98-.22-.31-.44-.63-.66-.93l-.02-.03c-.23-.31-.47-.61-.7-.91-.18-.23-.36-.46-.55-.68-.19-.22-.38-.44-.57-.66-.39-.43-.79-.85-1.2-1.26-.27-.27-.55-.54-.83-.81-.22-.2-.43-.39-.65-.58-.22-.2-.44-.38-.66-.57-.45-.36-.91-.72-1.37-1.07-.49-.36-.98-.7-1.49-1.03-.15-.1-.3-.2-.45-.29-.66-.42-1.34-.81-2.03-1.17-.32-.17-.64-.33-.96-.49l-.08-.04c-.36-.17-.71-.33-1.08-.49-.36-.16-.72-.31-1.09-.45-.36-.14-.74-.27-1.11-.4-.09-.03-.18-.06-.26-.08-.18-.07-.37-.13-.56-.18-.17-.06-.33-.1-.5-.15-.16-.05-.32-.09-.48-.14-.17-.05-.33-.09-.5-.14-.37-.1-.75-.18-1.13-.27h-.05c-.38-.09-.78-.17-1.17-.23-.44-.08-.87-.15-1.32-.2-.4-.05-.81-.1-1.22-.14-.93-.08-1.88-.13-2.83-.13h-36.33V3.1l-9.77,9.28v150.46h27.99l11.82-11.08-3.91-3.77h-10.42v-47.63h8.31l9.92,36.99,6.83,25.49h29.09l11.82-11.08-5.64-3.77ZM156.79,63.41c0,.14,0,.28,0,.42,0,.1-.01.2-.02.3-.03.59-.12,1.18-.25,1.75-.03.16-.07.31-.11.47v.03s0,0,0,0c-.06.2-.12.41-.19.61-.05.14-.09.29-.15.42l-.02.05c-.03.1-.07.19-.1.28-.23.57-.51,1.12-.84,1.64-.07.12-.15.25-.23.36-.73,1.1-1.66,2.07-2.72,2.85-.13.1-.27.2-.41.29-.16.1-.31.21-.47.3-.22.13-.44.26-.66.37-.18.1-.36.18-.53.26-.12.06-.25.12-.37.16l-.05.03-.04.02h-.02c-.19.08-.38.15-.57.21l-.12.05c-.1.03-.2.07-.31.09-.06.02-.12.04-.17.05-.1.03-.21.06-.32.08-.29.07-.57.13-.86.18-.08.02-.17.03-.25.04-.14.03-.27.04-.41.05-.14.02-.28.03-.42.04-.12.01-.23.02-.35.02-.16,0-.33.01-.5.01h-14.51v-36.99h14.51c.16,0,.31,0,.47,0,.15,0,.29.01.44.03h.05c.46.05.91.11,1.34.2.45.09.89.21,1.31.35.12.04.23.07.34.11h0c.1.05.2.08.31.13h.01s0,0,0,0c.13.05.26.11.39.16.13.06.26.12.38.18.12.06.25.12.38.2.1.05.2.11.3.17h0c.12.07.25.15.38.23.12.08.25.16.36.24.53.36,1.04.78,1.51,1.23l.13.13c.16.16.31.31.46.48l.08.09c.12.14.24.27.35.42.41.51.78,1.06,1.09,1.64.09.16.18.33.25.5.12.23.22.47.31.71.07.17.14.35.2.53l.05.13c.07.18.12.37.17.56.03.1.06.2.08.31.07.29.13.57.18.87.02.1.03.2.05.29.01.08.03.16.03.25.01.09.02.18.03.27.04.35.05.7.05,1.06v14.07Z"/>
  <polygon class="st0" points="119.35 0 119.35 16.81 105.32 16.81 105.32 12.38 115.09 3.1 118.35 0 119.35 0"/>
  <polygon class="st0" points="65.73 0 65.73 16.81 51.7 16.81 51.7 12.38 51.71 12.38 51.76 12.33 61.48 3.1 61.48 3.09 64.74 0 65.73 0"/>
  <polygon class="st0" points="14.03 0 14.03 16.81 0 16.81 0 12.38 0 12.38 .06 12.33 9.77 3.1 9.78 3.09 13.03 0 14.03 0"/>
  <path class="st1" d="M195.83,28.7c-.01-.21-.04-.42-.06-.63-.03-.21-.05-.42-.08-.62-.05-.44-.12-.89-.2-1.32-.14-.79-.31-1.57-.5-2.34-.1-.39-.21-.78-.33-1.17-.46-1.52-1.03-3-1.7-4.41-.17-.35-.35-.7-.53-1.05-.36-.69-.76-1.37-1.17-2.03-.21-.33-.42-.66-.64-.98-.22-.31-.44-.63-.66-.93l-.02-.03c-.23-.31-.47-.61-.7-.91-.18-.23-.36-.46-.55-.68-.19-.22-.38-.44-.57-.66-.39-.43-.79-.85-1.2-1.26-.27-.27-.55-.54-.83-.81-.22-.2-.43-.39-.65-.58-.22-.2-.44-.38-.66-.57-.45-.36-.91-.72-1.37-1.07-.49-.36-.98-.7-1.49-1.03-.15-.1-.3-.2-.45-.29-.66-.42-1.34-.81-2.03-1.17-.32-.17-.64-.33-.96-.49l-.08-.04c-.36-.17-.71-.33-1.08-.49-.36-.16-.72-.31-1.09-.45-.36-.14-.74-.27-1.11-.4-.09-.03-.18-.06-.26-.08-.18-.07-.37-.13-.56-.18-.17-.06-.33-.1-.5-.15-.16-.05-.32-.09-.48-.14-.17-.05-.33-.09-.5-.14-.37-.1-.75-.18-1.13-.27h-.05c-.38-.09-.78-.17-1.17-.23-.44-.08-.87-.15-1.32-.2-.4-.05-.81-.1-1.22-.14-.93-.08-1.88-.13-2.83-.13h-46.1v150.45h25.48v-62.48h8.31l9.92,36.99,6.83,25.49h26.38l-6.83-25.49-9.91-36.99-.8-3c.55-.26,1.09-.54,1.63-.84.23-.12.45-.25.66-.37.31-.18.61-.36.91-.56.2-.12.4-.25.6-.39.81-.54,1.6-1.12,2.36-1.73.19-.15.38-.31.57-.47.06-.06.12-.11.19-.16.21-.18.42-.36.62-.55.22-.21.44-.42.66-.63.22-.21.44-.42.65-.64.21-.22.42-.44.63-.66.2-.22.39-.43.59-.65l.02-.03c.2-.23.39-.46.58-.69.78-.96,1.51-1.97,2.18-3.02.1-.15.19-.31.28-.46.39-.64.75-1.29,1.09-1.95.14-.29.29-.58.42-.87.11-.23.22-.46.32-.68.12-.28.24-.57.36-.85.12-.29.23-.57.34-.87.1-.29.21-.58.31-.87.11-.32.22-.63.31-.95.05-.16.1-.33.15-.5.04-.14.08-.27.11-.4.08-.29.15-.58.22-.87.07-.29.14-.58.2-.87.07-.31.12-.62.18-.93.31-1.74.47-3.53.47-5.36v-26.27c0-.94-.05-1.88-.13-2.8ZM144.48,63.13V26.14h14.51c.16,0,.31,0,.47,0,.15,0,.29.01.44.03h.05c.46.05.91.11,1.34.2.45.09.89.21,1.31.35.12.04.23.07.34.11h0c.1.05.2.08.31.13h.01s0,0,0,0c.13.05.26.11.39.16.13.06.26.12.38.18.12.06.25.12.38.2.1.05.2.11.3.17h0c.12.07.25.15.38.23.12.08.25.16.36.24.53.36,1.04.78,1.51,1.23l.13.13c.16.16.31.31.46.48l.08.09c.12.14.24.27.35.42.41.51.78,1.06,1.09,1.64.09.16.18.33.25.5.12.23.22.47.31.71.07.17.14.35.2.53l.05.13c.07.18.12.37.17.56.03.1.06.2.08.31.07.29.13.57.18.87.02.1.03.2.05.29.01.08.03.16.03.25.01.09.02.18.03.27.04.35.05.7.05,1.06v14.07c0,.14,0,.28,0,.42,0,.1-.01.2-.02.3-.03.59-.12,1.18-.25,1.75-.03.16-.07.31-.11.47v.03s0,0,0,0c-.06.2-.12.41-.19.61-.05.14-.09.29-.15.42l-.02.05c-.03.1-.07.19-.1.28-.23.57-.51,1.12-.84,1.64-.07.12-.15.25-.23.36-.73,1.1-1.66,2.07-2.72,2.85-.13.1-.27.2-.41.29-.16.1-.31.21-.47.3-.21.13-.44.26-.66.37-.18.1-.36.18-.53.26-.12.06-.25.12-.37.16l-.05.03-.04.02h-.02c-.19.08-.38.15-.57.21l-.12.05c-.1.03-.2.07-.31.09-.06.02-.12.04-.17.05-.1.03-.21.06-.32.08-.29.07-.57.13-.86.18-.08.02-.17.03-.25.04-.14.03-.27.04-.41.05-.14.02-.28.03-.42.04-.12.01-.23.02-.35.02-.16,0-.33.01-.5.01h-14.51Z"/>
  <polygon class="st2" points="196.13 63.24 196.13 63.24 196.13 63.25 196.13 63.24"/>
  <polygon class="st2" points="195.95 64.19 195.95 64.2 195.95 64.2 195.95 64.19"/>
  <path class="st2" d="M163.11,26.2h-.03s-.04-.01-.04-.01c-.08-.03-.17-.05-.24-.08h0c-.45-.15-.91-.28-1.39-.37h0s0,0,0,0c-.46-.09-.93-.16-1.4-.2h-.03s-.06,0-.06,0c-.15-.01-.29-.02-.42-.03h0c-.17,0-.34,0-.5,0h-15.16v38.29h15.16c.18,0,.36,0,.52-.01h0c.12,0,.23,0,.35-.02h0s.02,0,.02,0c0,0,.01,0,.02,0h0c.13,0,.27-.02.41-.04h0s.02,0,.02,0c0,0,0,0,0,0h0c.11-.01.23-.03.37-.05h0s0,0,.01,0c.02,0,.04,0,.06,0h0c.08,0,.16-.02.23-.04h0s.03,0,.04,0c0,0,0,0,0,0h0c.29-.05.57-.1.86-.18h0s0,0,0,0c0,0,0,0,0,0h0c.14-.03.24-.07.32-.09.09-.02.16-.05.22-.07h0c.11-.03.22-.06.31-.09h.02s.13-.06.13-.06h0c.16-.05.3-.11.45-.16h.06l.18-.09.05-.02h0c.12-.05.24-.1.35-.15h0s.01,0,.02,0c0,0,0,0,0,0h0c.17-.07.35-.16.53-.26h0s0,0,.01,0c0,0,.01,0,.02,0h0c.24-.12.47-.25.68-.38h0s0,0,0,0c0,0,0,0,0,0h0c.17-.1.33-.21.48-.31h0s0,0,0,0c0,0,0,0,0,0h0c.15-.1.3-.2.43-.31h0s0,0,.01,0c0,0,0,0,0,0h0c1.11-.82,2.07-1.83,2.84-2.98h0s0,0,0,0c0,0,0,0,0-.01h0c.09-.13.17-.25.24-.38h0s0,0,0,0c0,0,0,0,0,0h0c.34-.54.63-1.12.88-1.71h0s0,0,0,0c0,0,0,0,0,0h0c.04-.1.08-.2.11-.3h0s.02-.05.02-.05h0c.07-.16.11-.3.15-.43h0s0,0,0,0c0,0,0,0,0-.01h0c.08-.22.14-.44.19-.63l.03-.09v-.02c.03-.13.07-.27.1-.43h0s0,0,0,0c0,0,0,0,0-.01h0c.14-.59.22-1.21.26-1.83h0c0-.1.01-.2.02-.3h0s0-.01,0-.01c0-.16,0-.31,0-.45v-14.07c0-.37-.01-.73-.05-1.1h0s0-.01,0-.02c0,0,0,0,0,0h0c0-.07-.01-.16-.02-.25h0s0-.01,0-.02c0,0,0-.02,0-.02h0c0-.09-.02-.18-.03-.24h0s0,0,0,0c0,0,0,0,0,0h0c-.01-.09-.03-.19-.05-.29h0s0,0,0-.01c0,0,0,0,0-.02h0c-.05-.29-.1-.58-.17-.86h0s0,0,0-.01c0,0,0-.02,0-.03h0c-.02-.11-.05-.21-.08-.32h0c-.05-.19-.11-.39-.18-.61h0s-.05-.13-.05-.13h0c-.06-.19-.13-.37-.2-.54h0s0,0,0-.01c0,0,0,0,0-.01h0c-.09-.24-.2-.49-.32-.73h0s0-.01,0-.02c0,0,0,0,0,0h0c-.08-.17-.17-.34-.26-.51h0s0,0,0,0c0,0,0,0,0,0h0c-.33-.6-.71-1.18-1.13-1.71h0s0,0,0,0c0,0,0,0,0-.01h0c-.12-.16-.24-.3-.36-.44h0s-.08-.09-.08-.09h0s0,0,0,0c-.16-.18-.32-.35-.48-.51l-.13-.13h0s0,0,0,0c-.49-.48-1.02-.91-1.58-1.3h0s0,0,0,0c0,0,0,0,0,0h0c-.13-.1-.26-.18-.38-.25-.13-.08-.27-.17-.4-.24l-.15-.09h-.01s-.09-.05-.14-.08h0s-.01,0-.02,0c0,0-.01,0-.02,0h0c-.13-.07-.25-.13-.37-.19h0s0,0-.01,0c0,0,0,0-.01,0h0c-.14-.07-.27-.13-.4-.19h-.01s-.01-.01-.01-.01c-.08-.03-.17-.07-.27-.11M168.21,57.33h0c-.06.12-.13.22-.2.32h0s0,.02,0,.02c-.69,1.04-1.56,1.95-2.56,2.69h-.01s-.01.02-.01.02c-.11.09-.23.17-.35.25h0s0,0,0,0c-.16.1-.3.2-.44.28h0s0,0,0,0c-.21.13-.41.25-.61.34h-.02s-.02.02-.02.02c-.15.08-.31.16-.48.23h-.01s-.01.01-.01.01c-.1.05-.21.1-.31.13h-.01s0,0,0,0h0s-.01,0-.01,0h0s-.09.04-.09.04c-.18.07-.34.14-.51.19h-.03s-.12.05-.12.05c-.09.03-.17.06-.25.07h-.02s-.02.01-.02.01l-.12.04c-.13.03-.23.06-.31.08h0s0,0,0,0c-.27.07-.54.12-.8.16h-.02s-.02,0-.02,0l-.15.02h-.04s-.04,0-.04,0c-.1.02-.21.03-.35.04h-.02s-.02,0-.02,0c-.11.02-.24.03-.35.03h-.02s-.02,0-.02,0c-.1.01-.18.02-.27.02h-.03c-.16,0-.32.01-.47.01h-13.86V26.8h13.86c.16,0,.3,0,.44,0,.15,0,.28.01.4.02h.03s.03,0,.03,0c.43.04.85.1,1.26.18.42.09.83.2,1.23.33h0c.13.04.24.08.33.11h.02c.09.04.18.08.25.11l.12.05h.03c.08.03.16.07.26.11.13.06.25.11.34.16h.01s.01.01.01.01c.12.05.23.11.33.17h.02s.02.02.02.02c.08.04.16.09.26.15l.15.09h0c.07.04.14.08.21.13.12.08.24.15.33.22h0s0,0,0,0c.51.35.98.73,1.42,1.16h0s.13.13.13.13c.15.15.29.3.43.45l.07.08h0s0,.01,0,.01c.12.13.22.25.31.37h0s0,.02,0,.02c.38.47.73,1,1.02,1.54h0s0,0,0,0c.08.15.16.3.23.45h0s0,.02,0,.02c.1.2.2.42.28.64h0s0,.02,0,.02c.06.15.12.31.18.47h0s.05.15.05.15h0c.05.16.1.33.15.52v.02s.01.02.01.02c.02.06.04.14.06.22v.02s0,.02,0,.02c.07.27.12.54.16.81h0s0,.03,0,.03c.01.07.03.15.04.25h0s0,.01,0,.01c.01.09.02.15.03.2v.02s0,.02,0,.02c0,.06.01.14.02.23h0s0,.03,0,.03c.04.31.05.64.05.98v14.07c0,.14,0,.27,0,.39,0,.1-.01.2-.02.29h0s0,0,0,0c-.03.55-.11,1.1-.23,1.64h0s0,.02,0,.02c-.03.14-.06.28-.1.44v.03s-.01.02-.01.02c-.06.19-.11.38-.17.54h0s0,.02,0,.02c-.05.14-.09.27-.13.36h0s-.03.08-.03.08h0s0,.02,0,.02c-.03.09-.06.16-.08.23h0s0,.01,0,.01c-.22.54-.48,1.05-.79,1.54h0Z"/>
  <polygon class="st2" points="184.95 82.24 184.95 82.24 184.95 82.24 184.95 82.24"/>
  <polygon class="st2" points="195.75 65.09 195.75 65.1 195.75 65.1 195.75 65.09"/>
  <path class="st2" d="M189.72,125.45l-9.91-36.99-.67-2.49c.39-.2.79-.39,1.18-.61h0s0,0,0,0c0,0,0,0,0,0h0c.23-.13.45-.25.67-.38h0s0,0,0,0c.31-.18.61-.37.92-.56h0s0,0,0,0c0,0,0,0,0,0h0c.2-.12.41-.26.61-.4h0s0,0,0,0c0,0,0,0,0,0h0c.83-.55,1.62-1.14,2.39-1.76.2-.16.4-.32.58-.48l.02-.02.02-.02s.07-.06.14-.12h.01s.01-.02.01-.02c.21-.18.42-.37.63-.57h0c.22-.21.44-.42.66-.63h0s0,0,0,0c0,0,0,0,0,0h0c.22-.21.44-.43.65-.65h0s0,0,0,0c0,0,0,0,0,0h0c.22-.22.43-.44.63-.67h0c.2-.22.39-.43.59-.66l.02-.02.02-.03c.19-.22.38-.45.58-.69.79-.98,1.54-2.01,2.21-3.08h0s0,0,0,0c0,0,0,0,0,0h0c.11-.17.2-.32.29-.47.4-.66.77-1.32,1.12-1.99h0s0,0,0,0c.14-.29.29-.58.43-.88h0s0,0,0,0c0,0,0,0,0,0h0c.11-.23.22-.46.32-.69h0s0,0,0,0c.13-.29.25-.58.36-.86h0c.12-.3.23-.59.35-.89h0s0,0,0,0c.1-.29.21-.58.31-.88h0s0,0,0,0c0,0,0,0,0,0h0c.11-.31.21-.63.31-.96h0s0-.01,0-.02c0,0,0,0,0,0h0c.05-.16.1-.33.15-.5h0s0,0,0,0c0,0,0,0,0,0h0c.04-.13.08-.27.11-.41h0s0,0,0,0c0,0,0,0,0,0h0c.08-.3.15-.58.22-.87.07-.3.14-.6.2-.9.07-.32.13-.63.18-.95.31-1.78.48-3.6.48-5.47v-26.27c0-.96-.05-1.9-.13-2.84h0s0,0,0,0c0,0,0,0,0-.01h0c-.02-.23-.04-.44-.06-.63h0s0-.02,0-.02c-.03-.21-.05-.42-.08-.62h0c-.05-.46-.13-.91-.21-1.35h0c-.15-.8-.31-1.6-.51-2.38h0s0,0,0,0c-.1-.39-.21-.78-.34-1.19h0s0,0,0,0c0,0,0,0,0,0h0c-.47-1.55-1.05-3.05-1.73-4.49h0c-.17-.36-.35-.72-.54-1.07-.37-.7-.77-1.4-1.19-2.07h0c-.21-.34-.43-.67-.65-1h0s0,0,0,0c-.21-.31-.43-.62-.65-.92h0s-.02-.04-.02-.04l-.02-.03c-.24-.32-.48-.62-.71-.92h0s0,0,0,0c-.18-.23-.37-.46-.57-.69-.19-.23-.38-.44-.58-.67h0s0,0,0,0c-.4-.44-.8-.87-1.22-1.29-.28-.28-.57-.55-.85-.82h0s0-.01,0-.01c-.21-.19-.43-.39-.65-.59-.23-.2-.46-.39-.67-.57h0s0-.01,0-.01c-.45-.37-.92-.73-1.39-1.09-.5-.38-1.01-.72-1.52-1.05h0c-.15-.09-.3-.19-.46-.29h0s0,0,0,0c0,0,0,0,0,0h0c-.67-.42-1.36-.82-2.06-1.19-.32-.17-.65-.34-.98-.5h0s-.09-.04-.09-.04h0c-.36-.17-.72-.33-1.1-.5-.37-.16-.74-.31-1.12-.46h0s0,0,0,0c-.37-.14-.74-.28-1.13-.41-.11-.04-.2-.07-.29-.09h0c-.17-.06-.35-.12-.54-.18h0s-.01,0-.02,0c0,0-.01,0-.02,0h0c-.17-.06-.32-.1-.48-.14h0c-.19-.06-.35-.1-.49-.14h0c-.19-.06-.36-.1-.5-.14h0s0,0,0,0c-.38-.1-.76-.19-1.14-.27h-.05s-.01-.02-.01-.02h-.01c-.38-.08-.78-.16-1.18-.23h0s0,0,0,0c0,0,0,0,0,0h0c-.44-.08-.88-.15-1.34-.21h0s0,0,0,0c0,0,0,0,0,0h0c-.41-.05-.82-.1-1.23-.14h0c-.95-.09-1.91-.13-2.89-.13h-46.75v151.76h26.79v-62.48h7.16l9.79,36.51,6.96,25.97h27.73l-7.05-26.31ZM163.34,125.45l-10.05-37.47h-9.46v62.48h-24.18V1.31h45.45c.94,0,1.86.04,2.77.13.4.04.8.08,1.2.13h0s0,0,0,0c.42.05.85.12,1.28.2h0s0,0,0,0c.37.06.75.14,1.13.22h.03s0,.01,0,.01h0c.38.09.75.17,1.1.26.17.05.33.09.47.13h0s0,0,0,0c.17.05.32.09.46.13h.01s.02,0,.02,0c.17.04.31.09.46.14h.02s.02.01.02.01c.16.04.34.1.51.17h.01s.01,0,.01,0c.09.03.16.05.23.08h0s0,0,0,0c.37.13.73.26,1.09.4.36.14.72.29,1.07.44h0c.35.15.7.31,1.05.48h0s.08.04.08.04c.32.15.63.31.94.48h0c.67.35,1.33.73,1.98,1.14h0s0,0,0,0c.14.08.28.18.43.28h.02s-.02,0-.02,0c.49.32.98.65,1.45,1.01.45.34.9.69,1.34,1.05.22.19.44.37.65.55h0c.21.18.42.37.63.57.28.27.55.53.82.79.4.4.79.82,1.18,1.24.19.22.38.43.56.64.18.21.36.43.54.66.23.29.45.58.67.87v.02s.03.02.03.02c.22.3.44.61.65.92.21.32.42.63.63.96.4.64.79,1.31,1.14,1.98.18.34.35.68.52,1.03.66,1.38,1.22,2.83,1.66,4.32h0s0,.01,0,.01c.12.36.22.74.32,1.13.19.75.35,1.51.49,2.29.08.43.15.86.2,1.28h0s0,0,0,0c.03.2.05.4.08.61.02.22.05.42.06.59h0s0,.02,0,.02c.08.9.13,1.81.13,2.74v26.27c0,1.79-.16,3.55-.46,5.25h0s0,0,0,0c-.05.3-.11.6-.17.91h0s0,0,0,0c-.06.28-.12.57-.19.84h0c-.07.29-.14.58-.22.86h0s0,0,0,0c-.03.12-.07.25-.11.38h0s0,0,0,0c-.04.15-.09.31-.14.47h0s0,.02,0,.02c-.09.3-.19.6-.3.92h0s0,0,0,0c-.09.28-.2.57-.3.85-.11.29-.22.57-.33.84-.12.28-.23.56-.35.83-.1.23-.21.45-.31.67h0s0,0,0,0c-.13.28-.27.57-.41.85-.34.65-.69,1.29-1.07,1.91h0c-.1.16-.18.31-.27.44h0s0,0,0,0c-.65,1.03-1.37,2.02-2.13,2.96h0c-.18.23-.37.45-.57.68v.02s-.03.02-.03.02c-.19.21-.37.42-.56.63h0c-.2.22-.4.43-.6.64h0s0,.01,0,.01c-.2.21-.41.42-.62.62h0s0,0,0,0c-.21.2-.43.41-.65.62h0c-.19.18-.39.35-.6.53-.05.04-.12.1-.19.16h0c-.18.15-.37.31-.55.45h0c-.75.61-1.51,1.17-2.31,1.7h0s0,0,0,0c-.18.13-.37.25-.57.37h0s0,0,0,0c-.3.19-.59.37-.89.55-.21.12-.42.24-.65.36h0s0,0,0,0c-.52.29-1.05.57-1.59.82l-.49.23.94,3.52,9.91,36.99,6.61,24.67h-25.03l-6.7-25.01Z"/>
  <polygon class="st2" points="192.05 74.09 192.04 74.11 192.04 74.11 192.04 74.11 192.05 74.09"/>
  <polygon class="st2" points="189.54 77.66 189.54 77.66 189.54 77.66 189.54 77.66"/>
  <path class="st0" d="M180.01,68.16c3.99-4.97,6.37-11.29,6.37-18.16v-10.73c0-6.87-2.38-13.19-6.37-18.16-1.34-1.67-2.85-3.18-4.52-4.52-4.98-3.99-11.29-6.38-18.17-6.38h-28.78v131.33h6.37v-62.47h25.15l15.03,56.1,1.71,6.37h6.6l-1.71-6.37-1.69-6.29-13.34-49.81-.38-1.41c3.38-1.09,6.48-2.8,9.19-4.97,1.67-1.33,3.19-2.85,4.53-4.53ZM164.63,71.49c-1.99.68-4.09,1.09-6.29,1.18-.34.02-.68.03-1.02.03h-22.41V16.59h22.41c8.94,0,16.67,5.17,20.37,12.68h0c1.48,3.02,2.31,6.42,2.31,10v10.73c0,3.59-.83,6.98-2.31,10h0c-2.64,5.37-7.34,9.54-13.06,11.49Z"/>
  <path class="st0" d="M77.21,12.38v119.6c0,1.83-.16,3.62-.47,5.36-2.23,12.74-12.28,22.79-25.02,25.02-1.75.31-3.54.47-5.37.47h-15.49c-1.83,0-3.62-.16-5.36-.47-12.74-2.23-22.79-12.28-25.02-25.02-.31-1.74-.47-3.53-.47-5.36V12.38h0l.05-.05L9.77,3.1v9.28h15.72v111.9c0,6.89,5.31,12.53,12.05,13.06.35.03.7.05,1.06.05s.71-.01,1.06-.05c6.75-.53,12.06-6.18,12.06-13.06V18.75h0v-6.37l.05-.05,9.72-9.23h0s0,9.28,0,9.28h15.72Z"/>
  <path class="st1" d="M90.89.65v119.6c0,1.83-.16,3.62-.47,5.36-2.23,12.74-12.28,22.79-25.02,25.02-1.75.31-3.54.47-5.37.47h-15.49c-1.83,0-3.62-.16-5.36-.47-12.74-2.23-22.79-12.28-25.02-25.02-.31-1.74-.47-3.53-.47-5.36V.65h25.49v111.9c0,6.89,5.31,12.53,12.05,13.06.35.03.7.05,1.06.05s.71-.01,1.06-.05c6.75-.53,12.06-6.18,12.06-13.06V.65h25.49Z"/>
  <polygon class="st2" points="91.06 125.73 91.06 125.73 91.06 125.73 91.06 125.73"/>
  <polygon class="st2" points="13.51 125.73 13.51 125.73 13.51 125.73 13.51 125.73"/>
  <path class="st2" d="M91.54,0h-26.79v112.55c0,6.54-5.05,11.91-11.46,12.41h0s0,0,0,0c-.32.03-.65.04-.99.04s-.67-.01-.99-.04h0s0,0,0,0c-6.41-.51-11.46-5.87-11.45-12.41V0H13.03v120.25c0,1.87.16,3.7.48,5.48,2.28,13.01,12.54,23.27,25.55,25.55,1.78.32,3.61.48,5.48.48h15.49c1.87,0,3.7-.17,5.48-.48,13.01-2.28,23.27-12.54,25.55-25.55.32-1.78.48-3.61.48-5.48V0ZM89.78,125.5h0s0,0,0,0c-2.18,12.47-12.02,22.31-24.49,24.49-1.71.3-3.46.46-5.26.46h-15.49c-1.79,0-3.55-.15-5.25-.46h0c-12.47-2.18-22.31-12.03-24.49-24.49h0s0,0,0,0c-.31-1.7-.46-3.45-.46-5.25V1.3h24.19v111.25c0,7.23,5.57,13.15,12.64,13.71h0s0,0,0,0c0,0,0,0,0,0h0c.37.03.74.05,1.11.05s.74-.01,1.11-.05h0s0,0,0,0c0,0,0,0,0,0h0c7.08-.57,12.65-6.49,12.65-13.71V1.3h24.19v118.95c0,1.79-.15,3.55-.46,5.25Z"/>
  <path class="st0" d="M81.32,10.21v103.32c-.23,6.48-2.57,12.41-6.37,17.13-1.33,1.67-2.85,3.18-4.52,4.51-4.97,3.99-11.29,6.37-18.16,6.37s-13.18-2.38-18.16-6.37c-1.67-1.34-3.19-2.85-4.53-4.53-3.99-4.97-6.37-11.29-6.37-18.16V10.21h6.37v101.54c0,.24-.01.49-.01.73s0,.49.01.73c.38,12.19,10.39,21.96,22.68,21.96s22.69-10.16,22.69-22.69V10.21h6.37Z"/>
</svg>