<?xml version="1.0" encoding="UTF-8"?>
<svg id="Layer_1" data-name="Layer 1" xmlns="http://www.w3.org/2000/svg" viewBox="0 0 953.43 419.18">
  <defs>
    <style>
      .cls-1 {
        fill: #c8ff3d;
      }

      .cls-2 {
        fill: #ff0037;
      }
    </style>
  </defs>
  <g>
    <g>
      <g>
        <path class="cls-1" d="M369.87,294.55V11.89c0-8.18-8.18-15.9-20.92-9.55l-68.61,33.64c-5.91,3.18-9.99,5.45-9.99,10.45v1.81c0,11.36,17.71,17.28,17.71,38.63v207.68c0,20.9-17.71,25.9-17.71,39.07v1.83c0,5.45,4.08,8.62,10.45,8.62h98.15c6.37,0,10.91-3.17,10.91-8.62v-1.83c0-13.18-19.98-18.17-19.98-39.07Z"/>
        <path class="cls-1" d="M850.82,139.46c-52.44-28.18-119.75-13.29-151.6,45.94-32.7,60.85-13.6,123.22,44.43,154.42,52.44,28.18,101.75,3.6,114.39-17.98,5.13-8.58-3.18-16.15-11.8-13.56-12.36,5.74-32.28,5.36-49.48-3.91-19.62-10.53-30.07-28.53-31.65-50.53l103.75-2.02c11.78.15,22.48-4.42,28.95-16.42,13.56-25.23,5.45-67.75-46.99-95.93Z"/>
      </g>
      <path class="cls-1" d="M593.95,139.46c-52.44-28.18-119.75-13.29-151.6,45.94-32.7,60.85-13.6,123.22,44.43,154.42,52.44,28.18,101.77,3.6,114.39-17.98,5.13-8.58-3.18-16.15-11.8-13.56-12.36,5.74-32.28,5.36-49.48-3.91-19.62-10.53-30.07-28.53-31.65-50.53l103.75-2.02c11.78.15,22.5-4.42,28.95-16.42,13.56-25.23,5.45-67.75-46.98-95.93Z"/>
    </g>
    <g>
      <path class="cls-1" d="M228.88,332.72l-15.03-14.19c-5.26-4.98-12.87-4.52-17.81.88-27.63,30.15-63.08,45.23-106.31,45.23-22.25,0-40.6-4.61-55.05-13.86-5.21-3.32-11.71-2.08-15.87,2.8l-14.99,17.64c-5.91,6.96-4.86,18.5,2.29,23.72,22.14,16.17,49.75,24.24,82.87,24.24,58.94,0,105.96-21.3,141.09-63.92,5.36-6.5,4.81-16.86-1.2-22.54Z"/>
      <path class="cls-1" d="M200.39,113.18c-40.9,0-60.43-4.54-89.07-4.54C45.9,108.65,0,147.72,0,205.44,0,259.52,46.8,296.78,110.43,296.78l.51-.02c8.45-.29,16.82-1.3,25.06-2.99,8.24-1.7,16.34-4.08,24.2-7.15,17.28-4.81,32.84-14.7,43.9-28.81,11.33-14.47,17.66-32.4,17.66-52.82s-9.08-41.34-22.25-56.35c14.53-4.54,32.26-2.73,34.08-20.44,1.35-10.45-3.64-15.01-33.18-15.01Z"/>
    </g>
  </g>
  <g>
    <path class="cls-2" d="M821.74,82.12c-1.01-1.54-2.71-2.4-5.07-2.57-.78-.06-1.45-.04-2.04.08-.59.1-1.35.31-2.29.59l.53-7.74-4.82-.34-1.77,25.17,1.35.23c2.33.42,4.33.67,6.04.8,2.08.13,3.78-.04,5.07-.57,1.3-.53,2.27-1.45,2.94-2.78.65-1.33,1.07-3.17,1.24-5.53.23-3.34-.15-5.78-1.18-7.32ZM818,89.14c-.13,1.89-.51,3.2-1.14,3.93-.63.71-1.68,1.01-3.17.92-.55-.04-1.33-.15-2.31-.31l.69-9.63c1.24-.23,2.27-.32,3.05-.27,1.13.1,1.93.53,2.38,1.35.48.82.63,2.15.5,4Z"/>
    <path class="cls-2" d="M838.71,83.42l-6.06,12.97-.82-.15-.36-14.34-4.67-.97.65,18.59,3.34.71-3.51,7.02,4.63.97,11.48-23.82-4.67-.97Z"/>
    <path class="cls-2" d="M871.53,92.72l1.72-3.99-14.45-6.14-9.61,22.62,4.6,1.96,3.39-7.99,8.05,3.41,1.7-3.99-8.05-3.41,2.82-6.65,9.84,4.18Z"/>
    <path class="cls-2" d="M874.47,96.94l-8.77,15.81,4.23,2.35,8.77-15.79-4.23-2.36ZM877.96,90.66l-2.36,4.25,4.23,2.36,2.38-4.27-4.25-2.35Z"/>
    <path class="cls-2" d="M889.87,103.25c.48-.31.93-.32,1.35-.04l2.42,1.79,2.33-3.36-3.24-2.56c-1.12-.76-2.12-1.16-2.97-1.22-.86-.08-1.7.21-2.54.86-.82.63-1.72,1.68-2.69,3.15l-.46.65-1.62-1.07-2.29,3.41,1.62,1.09-7.74,11.61,4.04,2.69,7.74-11.61,3.64,2.42,2.29-3.41-3.64-2.44.42-.63c.4-.59.84-1.05,1.33-1.33Z"/>
    <path class="cls-2" d="M898.87,113.3l3.17-3.91-3.78-3.05-3.15,3.91-1.66-1.33-2.59,3.2,1.66,1.33-4.73,5.83c-1.11,1.35-1.83,2.52-2.17,3.51-.36.97-.38,1.87-.06,2.69.32.82,1.03,1.68,2.12,2.56.44.34.88.67,1.35.95.46.29,1.14.65,2.02,1.09l2.27-3.15-2.19-1.68c-.53-.4-.72-.82-.59-1.26.13-.42.5-1.01,1.09-1.74l4.65-5.76,3.45,2.78,2.59-3.2-3.45-2.78Z"/>
    <path class="cls-2" d="M912.81,125.69c-.57-.59-1.18-1.07-1.83-1.43-.63-.38-1.45-.72-2.4-1.07l5.82-5.63-3.38-3.49-18.17,17.62,3.38,3.47,9.76-9.46.42.23c.88.48,1.6,1.03,2.21,1.66.76.78,1.05,1.56.82,2.31-.21.74-.92,1.7-2.08,2.82l-6.96,6.75,3.38,3.47,7.04-6.81c2.14-2.08,3.39-3.95,3.76-5.59.36-1.66-.21-3.28-1.75-4.86Z"/>
    <path class="cls-2" d="M931.52,138.79l-20.71,13.23,2.69,4.2,7.3-4.67,4.73,7.38,3.64-2.35-4.71-7.36,6.08-3.89,5.78,9,3.64-2.33-8.45-13.21Z"/>
    <path class="cls-2" d="M942.94,156.43l-22.65,11.31,2.17,4.33,22.63-11.29-2.15-4.35Z"/>
    <path class="cls-2" d="M944.14,175.94c-.95-2.56-2.44-4.21-4.46-4.96-2.02-.74-4.46-.59-7.28.46-2.84,1.07-4.79,2.56-5.84,4.44-1.05,1.91-1.11,4.12-.15,6.67.95,2.56,2.44,4.2,4.48,4.94,2.04.74,4.48.59,7.34-.48,2.82-1.05,4.75-2.52,5.78-4.42,1.05-1.89,1.09-4.12.13-6.66ZM940.04,180.21c-.57.8-1.75,1.54-3.55,2.21-1.77.67-3.17.88-4.14.65-.99-.21-1.68-.88-2.1-1.95-.4-1.09-.3-2.04.29-2.86.61-.8,1.79-1.54,3.59-2.21,1.77-.67,3.15-.9,4.12-.65.95.23,1.64.88,2.04,1.96.4,1.09.32,2.04-.25,2.84Z"/>
    <path class="cls-2" d="M950.07,196.02c-.59-2.65-1.83-4.5-3.74-5.53-1.89-1.03-4.31-1.22-7.27-.57-2.96.65-5.09,1.85-6.41,3.58-1.32,1.72-1.68,3.91-1.09,6.58.57,2.65,1.83,4.5,3.74,5.53,1.93,1.01,4.37,1.2,7.32.55,2.94-.65,5.07-1.83,6.37-3.57,1.3-1.72,1.64-3.91,1.07-6.58ZM945.4,199.68c-.69.71-1.96,1.28-3.81,1.68-1.87.4-3.26.44-4.21.08-.93-.36-1.53-1.11-1.77-2.23-.25-1.14-.02-2.06.69-2.78.71-.72,1.98-1.3,3.83-1.7,1.87-.4,3.26-.42,4.18-.06s1.51,1.11,1.75,2.23c.25,1.14.02,2.06-.65,2.78Z"/>
    <path class="cls-2" d="M950.53,214.17l1.91-.19-.46-4.79-18,1.74.48,4.82,12.05-1.16.32.71c.63,1.49,1.2,3.11,1.74,4.88l4.86-.48c-.53-1.74-1.51-3.58-2.9-5.53Z"/>
  </g>
</svg>